<svg xmlns="http://www.w3.org/2000/svg" width="1024" height="1024" viewBox="0 0 1024 1024" role="img" aria-label="M logo">
  <title>M logo</title>
  <g fill="black">
    <path d="M 415 95 L 376 106 L 334 122 L 291 144 L 256 167 L 225 192 L 194 223 L 169 254 L 147 287 L 125 329 L 110 367 L 97 412 L 90 449 L 86 490 L 86 540 L 89 573 L 97 614 L 113 665 L 139 722 L 172 774 L 196 803 L 242 847 L 264 864 L 302 889 L 361 918 L 393 930 L 417 936 L 423 934 L 426 929 L 393 818 L 374 733 L 363 660 L 353 544 L 354 543 L 399 694 L 457 872 L 463 880 L 470 883 L 506 887 L 529 887 L 557 884 L 564 882 L 571 874 L 628 685 L 668 544 L 668 568 L 663 632 L 649 738 L 637 796 L 624 846 L 599 924 L 599 932 L 601 934 L 608 936 L 658 920 L 692 905 L 727 886 L 756 867 L 794 837 L 821 811 L 846 782 L 875 740 L 897 698 L 912 661 L 922 630 L 933 579 L 937 542 L 937 491 L 933 449 L 924 404 L 907 351 L 881 295 L 864 267 L 847 244 L 813 206 L 767 167 L 720 137 L 668 113 L 612 96 L 593 94 L 587 99 L 511 311 L 436 101 L 429 94 Z"/>
  </g>
  <g fill="white">
    <path d="M 671 146 L 624 128 L 616 126 L 614 128 L 529 460 L 514 514 L 512 516 L 483 414 L 425 187 L 408 127 L 397 129 L 374 137 L 337 154 L 303 175 L 278 194 L 245 225 L 226 247 L 202 281 L 184 313 L 168 351 L 158 384 L 149 428 L 145 464 L 144 506 L 147 540 L 153 574 L 161 604 L 174 639 L 191 674 L 207 700 L 232 733 L 281 782 L 313 806 L 346 826 L 333 742 L 325 641 L 323 582 L 323 426 L 325 394 L 327 395 L 333 406 L 394 537 L 461 691 L 511 811 L 587 630 L 626 541 L 679 427 L 697 393 L 699 396 L 700 446 L 700 586 L 698 648 L 688 763 L 678 824 L 699 812 L 725 794 L 754 770 L 782 742 L 799 722 L 821 691 L 847 643 L 860 609 L 870 573 L 876 540 L 879 500 L 878 464 L 872 416 L 865 385 L 854 350 L 843 323 L 826 290 L 808 262 L 784 232 L 765 212 L 731 183 L 702 163 Z"/>
  </g>
</svg>
